<?xml version="1.0" standalone="no"?>
<!DOCTYPE svg PUBLIC "-//W3C//DTD SVG 20010904//EN"
 "http://www.w3.org/TR/2001/REC-SVG-20010904/DTD/svg10.dtd">
<svg version="1.0" xmlns="http://www.w3.org/2000/svg"
 width="48.000000pt" height="48.000000pt" viewBox="0 0 48.000000 48.000000"
 preserveAspectRatio="xMidYMid meet">

<g transform="translate(0.000000,48.000000) scale(0.100000,-0.100000)"
fill="#000000" stroke="none">
<path d="M190 402 c-23 -13 -40 -32 -49 -56 -13 -35 -12 -39 22 -109 20 -39
46 -83 57 -97 l20 -25 20 25 c11 14 36 57 56 97 34 66 35 74 24 107 -21 64
-90 91 -150 58z m88 -54 c15 -15 15 -61 0 -76 -15 -15 -61 -15 -76 0 -15 15
-15 61 0 76 7 7 24 12 38 12 14 0 31 -5 38 -12z"/>
</g>
</svg>
